<svg xmlns="http://www.w3.org/2000/svg" viewBox="0 0 1200 1680" font-family="system-ui, -apple-system, sans-serif">
  <defs>
    <marker id="arrowhead" markerWidth="8" markerHeight="6" refX="7" refY="3" orient="auto">
      <polygon points="0 0, 8 3, 0 6" fill="#94a3b8"/>
    </marker>
    <marker id="arrowhead-orange" markerWidth="8" markerHeight="6" refX="7" refY="3" orient="auto">
      <polygon points="0 0, 8 3, 0 6" fill="#ea580c"/>
    </marker>
  </defs>

  <!-- Canvas -->
  <rect width="1200" height="1680" fill="#fafafa"/>

  <!-- Title -->
  <text x="600" y="48" text-anchor="middle" fill="#1e293b" font-size="18" font-weight="700" font-family="monospace">ro11y — Agentic Observability Stack</text>
  <text x="600" y="72" text-anchor="middle" fill="#64748b" font-size="14">No dashboards. No running infrastructure. Just ask.</text>

  <!-- ==================== YOUR APPLICATION ==================== -->

  <rect x="80" y="105" width="1040" height="95" rx="8" fill="#ffffff" stroke="#e2e8f0" stroke-width="1"/>
  <rect x="80" y="105" width="1040" height="4" rx="2" fill="#94a3b8"/>
  <text x="110" y="132" fill="#94a3b8" font-size="11" font-weight="600" letter-spacing="1" font-family="monospace">YOUR APPLICATION</text>

  <!-- App -->
  <rect x="110" y="148" width="190" height="36" rx="4" fill="#ffffff" stroke="#e2e8f0" stroke-width="1"/>
  <text x="205" y="171" text-anchor="middle" fill="#1e293b" font-size="12" font-weight="500">Rust / Axum / Tokio</text>

  <!-- Arrow: App -> ro11y -->
  <line x1="300" y1="166" x2="370" y2="166" stroke="#94a3b8" stroke-width="1" marker-end="url(#arrowhead)"/>
  <text x="335" y="158" text-anchor="middle" fill="#94a3b8" font-size="9">tracing</text>

  <!-- ro11y -->
  <rect x="380" y="143" width="180" height="46" rx="4" fill="#fff7ed" stroke="#ea580c" stroke-width="1.5"/>
  <rect x="380" y="143" width="180" height="4" rx="2" fill="#ea580c"/>
  <text x="470" y="165" text-anchor="middle" fill="#ea580c" font-size="14" font-weight="700" font-family="monospace">ro11y</text>
  <text x="470" y="180" text-anchor="middle" fill="#64748b" font-size="9">OTLP protobuf over HTTP</text>

  <!-- Arrow: ro11y -> signals -->
  <line x1="560" y1="166" x2="630" y2="166" stroke="#ea580c" stroke-width="1" marker-end="url(#arrowhead-orange)"/>

  <!-- Signal badges -->
  <rect x="640" y="151" width="62" height="22" rx="4" fill="#fff7ed" stroke="#ea580c" stroke-width="1"/>
  <text x="671" y="166" text-anchor="middle" fill="#ea580c" font-size="10" font-weight="600" font-family="monospace">Traces</text>
  <rect x="712" y="151" width="50" height="22" rx="4" fill="#fff7ed" stroke="#ea580c" stroke-width="1"/>
  <text x="737" y="166" text-anchor="middle" fill="#ea580c" font-size="10" font-weight="600" font-family="monospace">Logs</text>
  <rect x="772" y="151" width="66" height="22" rx="4" fill="#fff7ed" stroke="#ea580c" stroke-width="1"/>
  <text x="805" y="166" text-anchor="middle" fill="#ea580c" font-size="10" font-weight="600" font-family="monospace">Metrics</text>

  <!-- ==================== VECTOR ==================== -->

  <line x1="600" y1="200" x2="600" y2="240" stroke="#94a3b8" stroke-width="1" marker-end="url(#arrowhead)"/>
  <text x="618" y="224" fill="#94a3b8" font-size="9">HTTP POST</text>

  <rect x="350" y="248" width="500" height="65" rx="8" fill="#ffffff" stroke="#e2e8f0" stroke-width="1"/>
  <rect x="350" y="248" width="500" height="4" rx="2" fill="#64748b"/>
  <text x="385" y="276" fill="#1e293b" font-size="14" font-weight="700" font-family="monospace">Vector.dev</text>
  <text x="385" y="296" fill="#64748b" font-size="11">OTLP source  →  Parquet / zstd  →  S3</text>

  <!-- ==================== S3 STORAGE ==================== -->

  <line x1="600" y1="313" x2="600" y2="353" stroke="#94a3b8" stroke-width="1" marker-end="url(#arrowhead)"/>
  <text x="618" y="337" fill="#94a3b8" font-size="9">Parquet batches</text>

  <rect x="250" y="360" width="700" height="140" rx="8" fill="#ffffff" stroke="#e2e8f0" stroke-width="1"/>
  <rect x="250" y="360" width="700" height="4" rx="2" fill="#64748b"/>
  <text x="285" y="390" fill="#1e293b" font-size="14" font-weight="700" font-family="monospace">S3 / Object Storage</text>
  <text x="530" y="390" fill="#94a3b8" font-size="11">~$0.02/GB/month</text>

  <!-- File tree -->
  <rect x="280" y="405" width="440" height="80" rx="4" fill="#fafafa" stroke="#e2e8f0" stroke-width="1"/>
  <text x="300" y="425" fill="#64748b" font-size="10" font-family="monospace">s3://traces/</text>
  <text x="320" y="441" fill="#1e293b" font-size="10" font-family="monospace">├── spans/2026/03/08/14/chunk-a3f7.parquet</text>
  <text x="320" y="457" fill="#1e293b" font-size="10" font-family="monospace">├── spans/2026/03/08/14/chunk-b1c2.parquet</text>
  <text x="320" y="473" fill="#1e293b" font-size="10" font-family="monospace">└── spans/2026/03/08/15/chunk-d4e5.parquet</text>

  <!-- Feature badges -->
  <rect x="740" y="410" width="82" height="20" rx="4" fill="#fafafa" stroke="#e2e8f0" stroke-width="1"/>
  <text x="781" y="424" text-anchor="middle" fill="#64748b" font-size="9">Columnar</text>
  <rect x="740" y="436" width="82" height="20" rx="4" fill="#fafafa" stroke="#e2e8f0" stroke-width="1"/>
  <text x="781" y="450" text-anchor="middle" fill="#64748b" font-size="9">Predicate pushdown</text>
  <rect x="740" y="462" width="82" height="20" rx="4" fill="#fafafa" stroke="#e2e8f0" stroke-width="1"/>
  <text x="781" y="476" text-anchor="middle" fill="#64748b" font-size="9">Lifecycle rules</text>

  <!-- ==================== DUCKDB ==================== -->

  <line x1="600" y1="500" x2="600" y2="535" stroke="#94a3b8" stroke-width="1" marker-end="url(#arrowhead)"/>
  <text x="618" y="522" fill="#94a3b8" font-size="9">httpfs reads</text>

  <rect x="300" y="542" width="600" height="135" rx="8" fill="#ffffff" stroke="#e2e8f0" stroke-width="1"/>
  <rect x="300" y="542" width="600" height="4" rx="2" fill="#ea580c"/>
  <text x="335" y="572" fill="#ea580c" font-size="14" font-weight="700" font-family="monospace">DuckDB</text>
  <text x="430" y="572" fill="#64748b" font-size="11">Embedded, zero infra, reads S3 directly</text>

  <!-- SQL -->
  <rect x="325" y="585" width="550" height="80" rx="4" fill="#fafafa" stroke="#e2e8f0" stroke-width="1"/>
  <text x="345" y="605" fill="#ea580c" font-size="10" font-family="monospace" font-weight="700">SELECT</text>
  <text x="400" y="605" fill="#1e293b" font-size="10" font-family="monospace">trace_id, span_name, duration_ms</text>
  <text x="345" y="621" fill="#ea580c" font-size="10" font-family="monospace" font-weight="700">FROM</text>
  <text x="383" y="621" fill="#1e293b" font-size="10" font-family="monospace">read_parquet('s3://traces/**/*.parquet')</text>
  <text x="345" y="637" fill="#ea580c" font-size="10" font-family="monospace" font-weight="700">WHERE</text>
  <text x="393" y="637" fill="#1e293b" font-size="10" font-family="monospace">service = 'harrow' AND duration_ms > 100</text>
  <text x="345" y="653" fill="#ea580c" font-size="10" font-family="monospace" font-weight="700">ORDER BY</text>
  <text x="418" y="653" fill="#1e293b" font-size="10" font-family="monospace">duration_ms DESC</text>
  <text x="555" y="653" fill="#ea580c" font-size="10" font-family="monospace" font-weight="700">LIMIT</text>
  <text x="600" y="653" fill="#1e293b" font-size="10" font-family="monospace">20;</text>

  <!-- ==================== AGENT ==================== -->

  <line x1="600" y1="677" x2="600" y2="712" stroke="#94a3b8" stroke-width="1" marker-end="url(#arrowhead)"/>
  <text x="618" y="699" fill="#94a3b8" font-size="9">result rows</text>

  <rect x="250" y="720" width="700" height="75" rx="8" fill="#ffffff" stroke="#e2e8f0" stroke-width="1"/>
  <rect x="250" y="720" width="700" height="4" rx="2" fill="#ea580c"/>
  <text x="285" y="748" fill="#ea580c" font-size="14" font-weight="700" font-family="monospace">Agent</text>
  <text x="345" y="748" fill="#64748b" font-size="11">Claude API — translates natural language to SQL, analyzes results</text>

  <!-- Agent capabilities -->
  <rect x="285" y="762" width="82" height="20" rx="4" fill="#fff7ed" stroke="#ea580c" stroke-width="1"/>
  <text x="326" y="776" text-anchor="middle" fill="#ea580c" font-size="9">NL → SQL</text>
  <rect x="380" y="762" width="82" height="20" rx="4" fill="#fff7ed" stroke="#ea580c" stroke-width="1"/>
  <text x="421" y="776" text-anchor="middle" fill="#ea580c" font-size="9">Multi-query</text>
  <rect x="475" y="762" width="82" height="20" rx="4" fill="#fff7ed" stroke="#ea580c" stroke-width="1"/>
  <text x="516" y="776" text-anchor="middle" fill="#ea580c" font-size="9">Drill-down</text>
  <rect x="570" y="762" width="82" height="20" rx="4" fill="#fff7ed" stroke="#ea580c" stroke-width="1"/>
  <text x="611" y="776" text-anchor="middle" fill="#ea580c" font-size="9">Summarize</text>

  <!-- User prompt -->
  <rect x="40" y="728" width="180" height="50" rx="4" fill="#fff7ed" stroke="#ea580c" stroke-width="1"/>
  <text x="130" y="750" text-anchor="middle" fill="#1e293b" font-size="10" font-weight="500">"Show me slow traces for</text>
  <text x="130" y="764" text-anchor="middle" fill="#1e293b" font-size="10" font-weight="500">harrow in the last hour"</text>
  <line x1="220" y1="753" x2="245" y2="753" stroke="#ea580c" stroke-width="1" marker-end="url(#arrowhead-orange)"/>

  <!-- ==================== HTML REPORT ==================== -->

  <line x1="600" y1="795" x2="600" y2="830" stroke="#94a3b8" stroke-width="1" marker-end="url(#arrowhead)"/>
  <text x="618" y="817" fill="#94a3b8" font-size="9">generates</text>

  <rect x="200" y="838" width="800" height="175" rx="8" fill="#ffffff" stroke="#e2e8f0" stroke-width="1"/>
  <rect x="200" y="838" width="800" height="4" rx="2" fill="#64748b"/>
  <text x="235" y="866" fill="#1e293b" font-size="14" font-weight="700" font-family="monospace">Self-Contained HTML Report</text>
  <text x="535" y="866" fill="#64748b" font-size="11">CSS + Chart.js + data inlined — no server needed</text>

  <!-- Mini line chart -->
  <rect x="230" y="882" width="350" height="115" rx="4" fill="#fafafa" stroke="#e2e8f0" stroke-width="1"/>
  <text x="250" y="900" fill="#1e293b" font-size="9" font-weight="600">Traffic Overview</text>

  <!-- Chart grid lines -->
  <line x1="250" y1="920" x2="550" y2="920" stroke="#e2e8f0" stroke-width="0.5"/>
  <line x1="250" y1="940" x2="550" y2="940" stroke="#e2e8f0" stroke-width="0.5"/>
  <line x1="250" y1="960" x2="550" y2="960" stroke="#e2e8f0" stroke-width="0.5"/>

  <!-- Line series -->
  <polyline points="250,945 280,940 310,950 340,930 370,935 400,920 430,932 460,922 490,928 520,918 550,925" fill="none" stroke="#ea580c" stroke-width="1.5"/>
  <polyline points="250,955 280,960 310,952 340,965 370,958 400,968 430,955 460,962 490,958 520,964 550,960" fill="none" stroke="#cbd5e1" stroke-width="1" stroke-dasharray="3,2"/>

  <text x="250" y="982" fill="#94a3b8" font-size="8">14:00</text>
  <text x="400" y="982" fill="#94a3b8" font-size="8">14:30</text>
  <text x="540" y="982" fill="#94a3b8" font-size="8">15:00</text>

  <!-- Mini bar chart -->
  <rect x="610" y="882" width="360" height="115" rx="4" fill="#fafafa" stroke="#e2e8f0" stroke-width="1"/>
  <text x="630" y="900" fill="#1e293b" font-size="9" font-weight="600">Status Codes</text>

  <rect x="645" y="922" width="55" height="55" rx="2" fill="none" stroke="#cbd5e1" stroke-width="1"/>
  <rect x="645" y="922" width="55" height="55" rx="2" fill="#ea580c" opacity="0.15"/>
  <text x="672" y="988" text-anchor="middle" fill="#64748b" font-size="8">200</text>

  <rect x="715" y="947" width="55" height="30" rx="2" fill="none" stroke="#cbd5e1" stroke-width="1"/>
  <rect x="715" y="947" width="55" height="30" rx="2" fill="#ea580c" opacity="0.1"/>
  <text x="742" y="988" text-anchor="middle" fill="#64748b" font-size="8">301</text>

  <rect x="785" y="960" width="55" height="17" rx="2" fill="none" stroke="#cbd5e1" stroke-width="1"/>
  <rect x="785" y="960" width="55" height="17" rx="2" fill="#ea580c" opacity="0.08"/>
  <text x="812" y="988" text-anchor="middle" fill="#64748b" font-size="8">500</text>

  <rect x="855" y="967" width="55" height="10" rx="2" fill="none" stroke="#cbd5e1" stroke-width="1"/>
  <rect x="855" y="967" width="55" height="10" rx="2" fill="#ea580c" opacity="0.06"/>
  <text x="882" y="988" text-anchor="middle" fill="#64748b" font-size="8">404</text>

  <!-- ==================== SHARE ==================== -->

  <line x1="600" y1="1013" x2="600" y2="1045" stroke="#94a3b8" stroke-width="1" marker-end="url(#arrowhead)"/>
  <text x="618" y="1033" fill="#94a3b8" font-size="9">upload to S3</text>

  <rect x="300" y="1052" width="600" height="50" rx="8" fill="#ffffff" stroke="#e2e8f0" stroke-width="1"/>
  <rect x="300" y="1052" width="600" height="4" rx="2" fill="#64748b"/>
  <text x="335" y="1078" fill="#1e293b" font-size="12" font-weight="700" font-family="monospace">Share</text>
  <text x="395" y="1078" fill="#64748b" font-size="11" font-family="monospace">https://reports.example.com/a3f7b2c1.html</text>

  <rect x="780" y="1068" width="44" height="20" rx="4" fill="#fafafa" stroke="#e2e8f0" stroke-width="1"/>
  <text x="802" y="1082" text-anchor="middle" fill="#64748b" font-size="9">Slack</text>
  <rect x="830" y="1068" width="44" height="20" rx="4" fill="#fafafa" stroke="#e2e8f0" stroke-width="1"/>
  <text x="852" y="1082" text-anchor="middle" fill="#64748b" font-size="9">Email</text>

  <!-- ==================== DEPLOYMENT ==================== -->

  <line x1="100" y1="1130" x2="1100" y2="1130" stroke="#e2e8f0" stroke-width="1"/>
  <text x="600" y="1158" text-anchor="middle" fill="#1e293b" font-size="18" font-weight="700" font-family="monospace">Deployment</text>

  <!-- Localhost -->
  <rect x="60" y="1182" width="520" height="220" rx="8" fill="#ffffff" stroke="#e2e8f0" stroke-width="1"/>
  <rect x="60" y="1182" width="520" height="4" rx="2" fill="#ea580c"/>
  <text x="95" y="1212" fill="#1e293b" font-size="14" font-weight="700" font-family="monospace">localhost</text>
  <text x="200" y="1212" fill="#64748b" font-size="11">Try it in 5 minutes</text>

  <rect x="85" y="1228" width="470" height="120" rx="4" fill="#fafafa" stroke="#e2e8f0" stroke-width="1"/>
  <text x="105" y="1250" fill="#1e293b" font-size="10" font-family="monospace">$ docker run -p 4318:4318 vector</text>
  <text x="105" y="1266" fill="#94a3b8" font-size="10" font-family="monospace">  # OTLP in → Parquet out to ./data/</text>
  <text x="105" y="1288" fill="#1e293b" font-size="10" font-family="monospace">$ cargo run --example my_app</text>
  <text x="105" y="1304" fill="#94a3b8" font-size="10" font-family="monospace">  # ro11y sends traces to localhost:4318</text>
  <text x="105" y="1326" fill="#1e293b" font-size="10" font-family="monospace">$ ro11y-query "slow traces last hour"</text>
  <text x="105" y="1342" fill="#94a3b8" font-size="10" font-family="monospace">  # DuckDB reads local Parquet, opens HTML</text>

  <!-- Local badges -->
  <rect x="85" y="1360" width="55" height="18" rx="4" fill="#fff7ed" stroke="#ea580c" stroke-width="1"/>
  <text x="112" y="1373" text-anchor="middle" fill="#ea580c" font-size="8" font-weight="600">ro11y</text>
  <rect x="148" y="1360" width="55" height="18" rx="4" fill="#fafafa" stroke="#e2e8f0" stroke-width="1"/>
  <text x="175" y="1373" text-anchor="middle" fill="#64748b" font-size="8" font-weight="600">Vector</text>
  <rect x="211" y="1360" width="58" height="18" rx="4" fill="#fafafa" stroke="#e2e8f0" stroke-width="1"/>
  <text x="240" y="1373" text-anchor="middle" fill="#64748b" font-size="8" font-weight="600">DuckDB</text>
  <rect x="277" y="1360" width="72" height="18" rx="4" fill="#fafafa" stroke="#e2e8f0" stroke-width="1"/>
  <text x="313" y="1373" text-anchor="middle" fill="#64748b" font-size="8" font-weight="600">Claude API</text>
  <rect x="357" y="1360" width="60" height="18" rx="4" fill="#fafafa" stroke="#e2e8f0" stroke-width="1"/>
  <text x="387" y="1373" text-anchor="middle" fill="#64748b" font-size="8" font-weight="600">Local FS</text>

  <!-- Cloud -->
  <rect x="620" y="1182" width="520" height="220" rx="8" fill="#ffffff" stroke="#e2e8f0" stroke-width="1"/>
  <rect x="620" y="1182" width="520" height="4" rx="2" fill="#64748b"/>
  <text x="655" y="1212" fill="#1e293b" font-size="14" font-weight="700" font-family="monospace">AWS / Azure / GCP</text>
  <text x="850" y="1212" fill="#64748b" font-size="11">Production at scale</text>

  <!-- Cloud mini-diagram -->
  <rect x="650" y="1232" width="460" height="95" rx="4" fill="#fafafa" stroke="#e2e8f0" stroke-width="1"/>

  <rect x="670" y="1250" width="80" height="26" rx="4" fill="#fff7ed" stroke="#ea580c" stroke-width="1"/>
  <text x="710" y="1267" text-anchor="middle" fill="#ea580c" font-size="9" font-family="monospace">ECS Tasks</text>

  <line x1="750" y1="1263" x2="778" y2="1263" stroke="#94a3b8" stroke-width="1" marker-end="url(#arrowhead)"/>

  <rect x="785" y="1250" width="80" height="26" rx="4" fill="#ffffff" stroke="#e2e8f0" stroke-width="1"/>
  <text x="825" y="1267" text-anchor="middle" fill="#64748b" font-size="9" font-family="monospace">Vector ECS</text>

  <line x1="865" y1="1263" x2="893" y2="1263" stroke="#94a3b8" stroke-width="1" marker-end="url(#arrowhead)"/>

  <rect x="900" y="1250" width="55" height="26" rx="4" fill="#ffffff" stroke="#e2e8f0" stroke-width="1"/>
  <text x="927" y="1267" text-anchor="middle" fill="#64748b" font-size="9" font-family="monospace">S3</text>

  <line x1="927" y1="1276" x2="927" y2="1290" stroke="#94a3b8" stroke-width="1" marker-end="url(#arrowhead)"/>

  <rect x="840" y="1295" width="100" height="26" rx="4" fill="#fff7ed" stroke="#ea580c" stroke-width="1"/>
  <text x="890" y="1312" text-anchor="middle" fill="#ea580c" font-size="9" font-family="monospace">Lambda Agent</text>

  <line x1="840" y1="1308" x2="810" y2="1308" stroke="#94a3b8" stroke-width="1" marker-end="url(#arrowhead)"/>

  <rect x="680" y="1295" width="125" height="26" rx="4" fill="#ffffff" stroke="#e2e8f0" stroke-width="1"/>
  <text x="742" y="1312" text-anchor="middle" fill="#64748b" font-size="9" font-family="monospace">S3 Static HTML</text>

  <!-- Cost comparison -->
  <rect x="650" y="1340" width="460" height="45" rx="4" fill="#fafafa" stroke="#e2e8f0" stroke-width="1"/>
  <text x="670" y="1360" fill="#1e293b" font-size="11" font-weight="600">Cost at 2B req/month:</text>
  <text x="670" y="1376" fill="#64748b" font-size="10">Vector ECS ~$145 + S3 ~$13 = ~$158/mo</text>
  <text x="920" y="1360" fill="#94a3b8" font-size="10">vs Datadog</text>
  <text x="920" y="1376" fill="#ea580c" font-size="10" font-weight="600">$6,700–$20,000+/mo</text>

  <!-- ==================== WHAT TO BUILD ==================== -->

  <line x1="100" y1="1425" x2="1100" y2="1425" stroke="#e2e8f0" stroke-width="1"/>
  <text x="600" y="1455" text-anchor="middle" fill="#1e293b" font-size="18" font-weight="700" font-family="monospace">What to Build</text>

  <!-- Table header -->
  <rect x="100" y="1475" width="1000" height="28" rx="0" fill="#fafafa"/>
  <line x1="100" y1="1503" x2="1100" y2="1503" stroke="#e2e8f0" stroke-width="1"/>
  <text x="140" y="1494" fill="#94a3b8" font-size="10" font-weight="600" letter-spacing="0.5">COMPONENT</text>
  <text x="420" y="1494" fill="#94a3b8" font-size="10" font-weight="600" letter-spacing="0.5">EFFORT</text>
  <text x="560" y="1494" fill="#94a3b8" font-size="10" font-weight="600" letter-spacing="0.5">TECHNOLOGY</text>
  <text x="830" y="1494" fill="#94a3b8" font-size="10" font-weight="600" letter-spacing="0.5">STATUS</text>

  <!-- Row 1 -->
  <line x1="100" y1="1533" x2="1100" y2="1533" stroke="#e2e8f0" stroke-width="0.5"/>
  <rect x="120" y="1513" width="4" height="14" rx="1" fill="#ea580c"/>
  <text x="140" y="1524" fill="#1e293b" font-size="11">Instrumentation</text>
  <text x="420" y="1524" fill="#64748b" font-size="11">—</text>
  <text x="560" y="1524" fill="#ea580c" font-size="11" font-weight="600" font-family="monospace">ro11y</text>
  <text x="830" y="1524" fill="#1e293b" font-size="11" font-weight="500">Done (v0.4.0)</text>

  <!-- Row 2 -->
  <line x1="100" y1="1563" x2="1100" y2="1563" stroke="#e2e8f0" stroke-width="0.5"/>
  <rect x="120" y="1543" width="4" height="14" rx="1" fill="#94a3b8"/>
  <text x="140" y="1554" fill="#1e293b" font-size="11">OTLP → Parquet ingest</text>
  <text x="420" y="1554" fill="#64748b" font-size="11">Config only</text>
  <text x="560" y="1554" fill="#64748b" font-size="11" font-weight="600" font-family="monospace">Vector.dev</text>
  <text x="830" y="1554" fill="#1e293b" font-size="11">Exists — just config</text>

  <!-- Row 3 -->
  <line x1="100" y1="1593" x2="1100" y2="1593" stroke="#e2e8f0" stroke-width="0.5"/>
  <rect x="120" y="1573" width="4" height="14" rx="1" fill="#94a3b8"/>
  <text x="140" y="1584" fill="#1e293b" font-size="11">Partitioned storage</text>
  <text x="420" y="1584" fill="#64748b" font-size="11">Trivial</text>
  <text x="560" y="1584" fill="#64748b" font-size="11" font-weight="600" font-family="monospace">S3 / MinIO</text>
  <text x="830" y="1584" fill="#1e293b" font-size="11">Naming convention</text>

  <!-- Row 4 -->
  <line x1="100" y1="1623" x2="1100" y2="1623" stroke="#e2e8f0" stroke-width="0.5"/>
  <rect x="120" y="1603" width="4" height="14" rx="1" fill="#94a3b8"/>
  <text x="140" y="1614" fill="#1e293b" font-size="11">Query layer</text>
  <text x="420" y="1614" fill="#64748b" font-size="11">Small</text>
  <text x="560" y="1614" fill="#64748b" font-size="11" font-weight="600" font-family="monospace">DuckDB + httpfs</text>
  <text x="830" y="1614" fill="#1e293b" font-size="11">Exists — embedded</text>

  <!-- Row 5 -->
  <line x1="100" y1="1653" x2="1100" y2="1653" stroke="#e2e8f0" stroke-width="0.5"/>
  <rect x="120" y="1633" width="4" height="14" rx="1" fill="#ea580c"/>
  <text x="140" y="1644" fill="#1e293b" font-size="11">Agent (NL → SQL → HTML)</text>
  <text x="420" y="1644" fill="#ea580c" font-size="11" font-weight="500">Medium</text>
  <text x="560" y="1644" fill="#ea580c" font-size="11" font-weight="600" font-family="monospace">Claude API</text>
  <text x="830" y="1644" fill="#ea580c" font-size="11" font-weight="500">To build — ro11y-query</text>
</svg>
